<svg width="24" height="24" viewBox="0 0 24 24" fill="none" xmlns="http://www.w3.org/2000/svg">
<path d="M11.9974 12.8333C12.4576 12.8333 12.8307 12.4602 12.8307 11.9999C12.8307 11.5397 12.4576 11.1666 11.9974 11.1666C11.5372 11.1666 11.1641 11.5397 11.1641 11.9999C11.1641 12.4602 11.5372 12.8333 11.9974 12.8333Z" stroke="#3B332B" stroke-width="2" stroke-linecap="round" stroke-linejoin="round"/>
<path d="M11.9974 6.99992C12.4576 6.99992 12.8307 6.62682 12.8307 6.16659C12.8307 5.70635 12.4576 5.33325 11.9974 5.33325C11.5372 5.33325 11.1641 5.70635 11.1641 6.16659C11.1641 6.62682 11.5372 6.99992 11.9974 6.99992Z" stroke="#3B332B" stroke-width="2" stroke-linecap="round" stroke-linejoin="round"/>
<path d="M11.9974 18.6666C12.4576 18.6666 12.8307 18.2935 12.8307 17.8333C12.8307 17.373 12.4576 16.9999 11.9974 16.9999C11.5372 16.9999 11.1641 17.373 11.1641 17.8333C11.1641 18.2935 11.5372 18.6666 11.9974 18.6666Z" stroke="#3B332B" stroke-width="2" stroke-linecap="round" stroke-linejoin="round"/>
</svg>
