<svg width="168" height="30" viewBox="0 0 168 30" fill="none" xmlns="http://www.w3.org/2000/svg">
  <style>
    @media (prefers-color-scheme: dark) {
    path {
    fill: white;
    }
    }
  </style>
  <rect x="2" y="1.90356" width="26.1956" height="26.1956" rx="5.51486" fill="#151515"/>
  <g filter="url(#filter0_d_2779_29859)">
    <path
      d="M25.3518 4.55177L17.4887 14.9036L25.3518 25.2554L15 17.3923L4.64818 25.2554L12.5113 14.9036L4.64818 4.55177L15 12.4148L25.3518 4.55177Z"
      fill="white"/>
  </g>
  <path
    d="M41.1455 13.5071H48.8494C49.8623 13.5071 50.662 13.2743 51.2485 12.8087C51.8527 12.3252 52.1548 11.6626 52.1548 10.8209C52.1548 9.97918 51.8527 9.32552 51.2485 8.8599C50.662 8.39428 49.8623 8.16147 48.8494 8.16147H40.4791L42.5317 5.82442V24.7089H38V4.56188H49.3825C50.8397 4.56188 52.1193 4.8305 53.2211 5.36776C54.3229 5.8871 55.1848 6.61239 55.8068 7.54363C56.4288 8.47487 56.7398 9.56728 56.7398 10.8209C56.7398 12.0566 56.4288 13.14 55.8068 14.0713C55.1848 15.0025 54.3229 15.7367 53.2211 16.274C52.1193 16.7933 50.8397 17.053 49.3825 17.053H41.1455V13.5071ZM44.6109 15.2801H49.7823L57.3262 24.7089H52.0215L44.6109 15.2801Z"
    fill="#151515"/>
  <path
    d="M58.5279 24.7089V4.56188H63.0329V21.0018L61.7534 20.0885L74.1222 4.56188H78.9471L62.6064 24.7089H58.5279ZM68.0711 14.8503L71.3232 11.9222L79.2403 24.7089H74.0689L68.0711 14.8503Z"
    fill="#151515"/>
  <path
    d="M77.8073 18.1275H82.3923C82.4989 18.808 82.7921 19.408 83.2719 19.9273C83.7695 20.4288 84.4271 20.8227 85.2445 21.1093C86.0798 21.3779 87.0394 21.5122 88.1235 21.5122C89.7051 21.5122 90.9491 21.2884 91.8554 20.8406C92.7796 20.375 93.2416 19.7303 93.2416 18.9065C93.2416 18.2618 92.975 17.7693 92.4419 17.4291C91.9265 17.0709 90.958 16.8112 89.5363 16.6501L85.5111 16.1934C82.9165 15.9069 81.0328 15.298 79.8599 14.3667C78.7047 13.4176 78.1272 12.1013 78.1272 10.4179C78.1272 9.09271 78.5092 7.96448 79.2734 7.03324C80.0553 6.102 81.1483 5.39462 82.5522 4.91109C83.9561 4.40965 85.6089 4.15894 87.5104 4.15894C89.3586 4.15894 91.0024 4.43652 92.4419 4.99168C93.8814 5.52893 95.0276 6.29004 95.8806 7.275C96.7337 8.24206 97.1957 9.37925 97.2668 10.6866H92.6818C92.593 10.0956 92.3264 9.58519 91.8821 9.15539C91.4556 8.70768 90.8603 8.36742 90.0961 8.13461C89.3319 7.88389 88.4345 7.75853 87.4038 7.75853C85.9643 7.75853 84.818 7.97343 83.965 8.40323C83.112 8.83304 82.6855 9.44193 82.6855 10.2299C82.6855 10.8388 82.9343 11.3134 83.4319 11.6536C83.9472 11.976 84.8447 12.2177 86.1242 12.3789L90.3094 12.8893C92.1576 13.0863 93.6237 13.4086 94.7077 13.8564C95.8096 14.2862 96.5915 14.8682 97.0535 15.6024C97.5334 16.3367 97.7733 17.2679 97.7733 18.3961C97.7733 19.7393 97.3645 20.9212 96.5471 21.942C95.7474 22.9449 94.6189 23.7239 93.1616 24.2791C91.7044 24.8342 89.9984 25.1118 88.0435 25.1118C86.0531 25.1118 84.3027 24.8253 82.7921 24.2522C81.2816 23.6612 80.0909 22.8464 79.2201 21.8077C78.3493 20.7511 77.8784 19.5244 77.8073 18.1275Z"
    fill="#151515"/>
  <path
    d="M114.214 22.6943H112.214L120.371 4.56202H125.17L115.68 24.709H110.588L101.125 4.56202H105.977L114.214 22.6943Z"
    fill="#151515"/>
  <path
    d="M136.906 4.56202C138.488 4.56202 139.856 4.8396 141.011 5.39476C142.167 5.94992 143.046 6.72894 143.65 7.73181C144.272 8.73468 144.583 9.89873 144.583 11.224C144.583 12.5492 144.272 13.7132 143.65 14.7161C143.046 15.7011 142.167 16.4801 141.011 17.0532C139.856 17.6083 138.488 17.8859 136.906 17.8859H128.083V14.1251H136.666C137.715 14.1251 138.532 13.8654 139.119 13.3461C139.723 12.8268 140.025 12.1194 140.025 11.224C140.025 10.3106 139.723 9.60324 139.119 9.10181C138.532 8.58246 137.715 8.32279 136.666 8.32279H128.483L130.535 6.14691V24.709H126.004V4.56202H136.906Z"
    fill="#151515"/>
  <path
    d="M164.201 21.7004L162.628 21.9422V4.56201H166.996V24.709H161.295L148.5 7.32887L150.046 7.0871V24.709L146.004 24.709V4.56202L151.538 4.56201L164.201 21.7004Z"
    fill="#151515"/>
  <defs>
    <filter id="filter0_d_2779_29859" x="0.648438" y="0.551758" width="28.7031" height="28.7036"
            filterUnits="userSpaceOnUse" color-interpolation-filters="sRGB">
      <feFlood flood-opacity="0" result="BackgroundImageFix"/>
      <feColorMatrix in="SourceAlpha" type="matrix" values="0 0 0 0 0 0 0 0 0 0 0 0 0 0 0 0 0 0 127 0"
                     result="hardAlpha"/>
      <feOffset/>
      <feGaussianBlur stdDeviation="2"/>
      <feComposite in2="hardAlpha" operator="out"/>
      <feColorMatrix type="matrix" values="0 0 0 0 0.615686 0 0 0 0 0.937255 0 0 0 0 0.980392 0 0 0 1 0"/>
      <feBlend mode="normal" in2="BackgroundImageFix" result="effect1_dropShadow_2779_29859"/>
      <feBlend mode="normal" in="SourceGraphic" in2="effect1_dropShadow_2779_29859" result="shape"/>
    </filter>
  </defs>
</svg>
